<svg width="1440" height="900" viewBox="0 0 1440 900" fill="none" xmlns="http://www.w3.org/2000/svg">
  <rect width="1440" height="900" rx="34" fill="#07090A"/>
  <ellipse cx="220" cy="300" rx="190" ry="120" fill="#67D486" fill-opacity="0.55"/>
  <ellipse cx="1200" cy="620" rx="230" ry="130" fill="#2A8E4A" fill-opacity="0.42"/>
  <rect x="180" y="190" width="1080" height="620" rx="24" fill="#121518" stroke="#454A50" stroke-width="4"/>
  <rect x="206" y="216" width="1028" height="566" rx="12" fill="#F7F8F8"/>
  <rect x="256" y="284" width="360" height="164" rx="18" fill="#FFFFFF" stroke="#E3E8EB" stroke-width="3"/>
  <rect x="644" y="284" width="260" height="164" rx="18" fill="#FFFFFF" stroke="#E3E8EB" stroke-width="3"/>
  <rect x="926" y="284" width="258" height="164" rx="18" fill="#FFFFFF" stroke="#E3E8EB" stroke-width="3"/>
  <rect x="256" y="470" width="360" height="250" rx="18" fill="#FFFFFF" stroke="#E3E8EB" stroke-width="3"/>
  <rect x="644" y="470" width="260" height="250" rx="18" fill="#FFFFFF" stroke="#E3E8EB" stroke-width="3"/>
  <rect x="926" y="470" width="258" height="250" rx="18" fill="#FFFFFF" stroke="#E3E8EB" stroke-width="3"/>
  <text x="256" y="262" fill="#20262B" font-family="Segoe UI, Noto Sans, sans-serif" font-size="48" font-weight="700">Metrics dashboard</text>
  <rect x="30" y="320" width="340" height="500" rx="42" fill="#090B0C" stroke="#3C434A" stroke-width="6"/>
  <rect x="56" y="372" width="288" height="420" rx="26" fill="#F8FAFA"/>
  <rect x="84" y="410" width="230" height="16" rx="8" fill="#CEE9D7"/>
  <rect x="84" y="448" width="230" height="24" rx="10" fill="#E7ECEF"/>
  <rect x="84" y="492" width="230" height="24" rx="10" fill="#E7ECEF"/>
  <rect x="84" y="536" width="230" height="24" rx="10" fill="#E7ECEF"/>
  <rect x="84" y="580" width="230" height="24" rx="10" fill="#E7ECEF"/>
</svg>
